HIERARCHY
ROOT joint_0
{
	OFFSET 0.000000 0.000000 0.000000
	CHANNELS 6 Xposition Yposition Zposition Zrotation Yrotation Xrotation 
	JOINT joint_1
	{
		OFFSET 1.363060 -1.794630 0.839290
		CHANNELS 3 Zrotation Yrotation Xrotation
		JOINT joint_2
		{
			OFFSET 2.448110 -6.726130 0.000000
			CHANNELS 3 Zrotation Yrotation Xrotation
			JOINT joint_3
			{
				OFFSET 2.562200 -7.039590 0.000000
				CHANNELS 3 Zrotation Yrotation Xrotation
				JOINT joint_4
				{
					OFFSET 0.157640 -0.433110 2.322550
					CHANNELS 3 Zrotation Yrotation Xrotation
					End Site
					{
						OFFSET 0.000000 0.000000 0.000000
					}
				}
			}
		}
	}
	JOINT joint_5
	{
		OFFSET -1.305520 -1.794630 0.839290
		CHANNELS 3 Zrotation Yrotation Xrotation
		JOINT joint_6
		{
			OFFSET -2.542530 -6.985550 0.000000
			CHANNELS 3 Zrotation Yrotation Xrotation
			JOINT joint_7
			{
				OFFSET -2.568260 -7.056230 0.000000
				CHANNELS 3 Zrotation Yrotation Xrotation
				JOINT joint_8
				{
					OFFSET -0.164730 -0.452590 2.363150
					CHANNELS 3 Zrotation Yrotation Xrotation
					End Site
					{
						OFFSET 0.000000 0.000000 0.000000
					}
				}
			}
		}
	}
	JOINT joint_9
	{
		OFFSET 0.028270 2.035590 -0.193380
		CHANNELS 3 Zrotation Yrotation Xrotation
		JOINT joint_10
		{
			OFFSET 0.056720 4.548850 -0.042750
			CHANNELS 3 Zrotation Yrotation Xrotation
			JOINT joint_11
			{
				OFFSET -0.054170 1.746240 0.172020
				CHANNELS 3 Zrotation Yrotation Xrotation
				JOINT joint_12
				{
					OFFSET 0.104070 1.761360 -0.123970
					CHANNELS 3 Zrotation Yrotation Xrotation
					End Site
					{
						OFFSET 0.000000 0.000000 0.000000
					}
				}
			}
			JOINT joint_13
			{
				OFFSET 3.362410 1.200890 -0.311210
				CHANNELS 3 Zrotation Yrotation Xrotation
				JOINT joint_14
				{
					OFFSET 5.783000 0.000000 0.000000
					CHANNELS 3 Zrotation Yrotation Xrotation
					JOINT joint_15
					{
						OFFSET 6.683559 0.000000 0.000000
						CHANNELS 3 Zrotation Yrotation Xrotation
						JOINT joint_16
						{
							OFFSET 0.000000 0.000000 0.000000
							CHANNELS 3 Zrotation Yrotation Xrotation
							End Site
							{
								OFFSET 0.000000 0.000000 0.000000
							}
						}
					}
				}
			}
			JOINT joint_17
			{
				OFFSET -2.136613 1.374050 -0.404650
				CHANNELS 3 Zrotation Yrotation Xrotation
				JOINT joint_18
				{
					OFFSET -0.741900 0.000000 0.000000
					CHANNELS 3 Zrotation Yrotation Xrotation
					JOINT joint_19
					{
						OFFSET -0.744170 0.000000 0.000000
						CHANNELS 3 Zrotation Yrotation Xrotation
						JOINT joint_20
						{
							OFFSET 0.000000 0.000000 0.000000
							CHANNELS 3 Zrotation Yrotation Xrotation
							End Site
							{
								OFFSET 0.000000 0.000000 0.000000
							}
						}
					}
				}
			}
		}
	}
}
MOTION
Frames: 12
Frame Time: 0.031667
-9.504039 13.213994 1.398569 -12.802456 78.930977 -3.364663 -4.472501 11.071915 -35.989639 -2.376760 16.005128 39.666712 -1.156441 3.094237 3.426521 -0.361453 0.062847 1.016911 -0.831881 -12.182603 -17.006870 -10.488541 -24.663665 77.791975 -0.760064 -1.966384 0.272820 -2.288515 8.375173 -25.464568 1.423716 -0.194761 -1.816009 -1.730558 -0.144771 -8.587820 3.542620 1.499086 11.034219 -1.467869 0.930212 -19.951944 -57.430669 -57.473007 -1.244945 21.149361 -28.234186 -11.372227 4.468360 -3.302276 -0.556632 -7.397575 -0.371601 -0.293788 66.269219 65.794706 39.097725 -16.733621 22.617923 -17.413112 -2.196253 4.314242 0.553504 6.661773 -0.349638 -0.358913 
-9.044865 13.234505 1.380784 -15.252708 78.662460 -5.019760 -4.695417 10.885657 -37.212369 -1.797375 16.926105 42.420774 -0.878706 2.486146 3.333802 -0.352431 -0.347340 -0.125299 -0.887089 -11.901217 -16.372268 -10.155448 -24.682292 77.375187 -0.621021 -2.041633 0.630951 -2.019151 7.810124 -23.647627 1.123461 -0.087267 -1.524947 -1.668153 -0.126952 -8.646089 3.730183 1.607193 10.535434 -1.220715 1.028678 -20.133128 -59.531408 -57.597913 2.441840 20.828093 -27.513613 -11.760747 4.446655 -3.572774 -0.499339 -7.389990 -0.361349 -0.282653 67.922641 64.034653 39.423037 -16.650307 22.566624 -17.935239 -2.109336 4.395813 0.344817 6.676671 -0.340907 -0.345802 
-8.582102 13.253814 1.375227 -16.009581 78.725639 -5.274573 -4.965391 10.844374 -38.269999 -1.122366 17.803313 45.177468 -0.664179 2.268991 2.950698 -0.341911 -0.589701 -0.803260 -0.700497 -11.572132 -15.999150 -10.162469 -24.896579 77.653776 -0.671072 -2.397672 0.638568 -1.698058 7.042791 -21.281947 1.091863 -0.023366 -1.493352 -1.636910 -0.106860 -8.692950 3.638150 1.532314 9.830622 -0.827951 1.069592 -20.229628 -61.711503 -57.272578 6.906998 20.430636 -26.791204 -12.178042 4.417133 -3.792638 -0.384504 -7.384751 -0.354332 -0.275408 69.588070 61.891812 40.229824 -16.664879 22.622622 -18.625847 -2.084738 4.520709 0.136377 6.686521 -0.334695 -0.335297 
-8.108243 13.300405 1.390545 -14.743326 79.047958 -3.570675 -5.092845 10.951907 -39.334110 -0.307636 18.477588 47.941286 -0.376661 1.888269 2.747380 -0.327722 -0.859473 -1.559869 -0.560530 -11.088715 -15.647263 -10.354371 -24.937017 78.589817 -0.566135 -2.696891 0.723340 -1.434179 6.344633 -19.117629 0.973702 0.200565 -1.330006 -1.471244 -0.027520 -8.730310 3.509279 1.542282 9.380666 -0.411778 1.127513 -20.169464 -63.988793 -56.487831 11.707989 19.984088 -26.253737 -12.546993 4.493288 -4.111831 -0.592124 -7.376832 -0.347389 -0.267036 71.166333 59.766762 41.078004 -16.567005 22.593255 -19.225423 -2.092879 4.639268 -0.159914 6.698375 -0.328719 -0.324248 
-7.625435 13.354099 1.398971 -12.545284 79.557106 -1.045868 -5.331449 10.847689 -40.139020 0.398403 19.141718 50.492308 -0.059913 1.766733 2.452920 -0.302662 -1.259431 -2.671434 -0.419486 -10.605583 -15.491835 -10.608847 -25.165500 79.828702 -0.650453 -3.041720 0.501611 -1.228332 5.745186 -17.270705 0.650699 0.372116 -1.173077 -1.311903 0.022486 -8.577449 3.397443 1.565718 8.744278 -0.107613 1.215946 -20.199349 -65.808632 -55.640655 15.846027 19.401097 -25.447815 -12.685278 4.478743 -4.289510 -0.669595 -7.370502 -0.339360 -0.256934 72.035853 57.720199 41.385910 -16.373407 22.425646 -19.470365 -2.010570 4.688388 -0.172407 6.712907 -0.321763 -0.312339 
-7.136471 13.432327 1.396847 -12.834898 80.075310 -0.522212 -5.348368 10.564872 -40.905304 1.115038 19.729600 52.894222 0.334449 1.235768 1.980977 -0.269876 -1.675769 -3.836566 -0.215229 -10.080230 -15.761648 -10.927887 -25.324292 81.088983 -0.610055 -3.270059 0.148140 -0.968064 4.848470 -14.600615 0.483492 0.486763 -0.871665 -1.131383 0.072122 -8.638753 3.335846 1.530631 8.404328 0.312587 1.247324 -20.176817 -66.976475 -55.041969 18.969833 18.881354 -24.792508 -12.980989 4.478257 -4.565975 -0.604807 -7.363559 -0.332129 -0.247978 73.135212 56.302492 42.174410 -16.117887 22.135590 -19.835867 -1.950492 4.759445 -0.294527 6.725530 -0.315714 -0.301589 
-6.670526 13.501952 1.377144 -15.472880 80.590347 -2.654320 -5.423907 10.345872 -41.332844 1.563657 20.145740 54.697628 0.579176 0.696605 1.675618 -0.240515 -2.000061 -4.736352 0.148951 -9.539827 -15.947778 -11.370046 -25.614474 82.791772 -0.525854 -3.474584 -0.210491 -0.663293 3.460689 -10.623876 0.401207 0.517673 -0.656323 -0.891511 0.069382 -8.447238 3.241848 1.469855 8.045544 0.738643 1.304799 -19.997185 -67.637196 -54.443474 21.080410 18.225005 -24.062799 -13.184533 4.503430 -4.799589 -0.566148 -7.361305 -0.328398 -0.242500 74.093159 55.559302 43.033416 -15.710251 21.589035 -20.045580 -1.983179 4.787485 -0.311733 6.732468 -0.312807 -0.295267 
-6.211817 13.555721 1.369746 -18.887506 81.359276 -5.776923 -5.580724 9.986516 -41.353010 1.621963 20.528068 55.787069 0.824378 0.264761 1.504834 -0.203266 -2.354243 -5.710747 0.584968 -8.898716 -16.283542 -11.551601 -25.999492 83.988128 -0.779507 -3.856762 -0.439408 -0.484863 2.299514 -7.363136 0.418782 0.595513 -0.412102 -0.692440 0.118293 -8.647069 2.890359 1.417317 7.646734 1.130238 1.323486 -19.879900 -67.840599 -54.177402 22.373990 17.585363 -23.350916 -13.501829 4.473558 -5.044362 -0.448797 -7.358639 -0.324949 -0.238535 75.073135 54.871502 44.065995 -15.238561 21.027485 -20.335726 -1.965766 4.882779 -0.422498 6.736701 -0.309955 -0.289741 
-5.754084 13.606577 1.388607 -22.488663 82.385277 -9.056768 -5.490703 9.469165 -40.808153 1.877739 20.680804 56.590416 0.987695 0.238534 1.397307 -0.177652 -2.542715 -6.252213 1.164922 -7.991721 -16.769685 -11.891482 -26.202268 85.338100 -0.827589 -4.105721 -0.649198 -0.392684 1.438712 -4.917930 0.221498 0.582886 -0.348190 -0.570290 0.099201 -8.742206 2.598334 1.157857 7.362870 1.586885 1.325898 -19.626679 -67.827713 -54.084989 23.241610 17.027163 -22.631919 -13.634824 4.562380 -5.143042 -0.251304 -7.352149 -0.319417 -0.232879 75.789907 54.784784 44.962317 -14.888256 20.402057 -20.404865 -1.931282 4.893908 -0.494914 6.742174 -0.305470 -0.281949 
-5.301321 13.663393 1.430833 -25.437986 83.286415 -11.655134 -5.522323 9.090528 -40.312573 2.122249 20.814754 57.419913 1.239556 -0.037991 1.127878 -0.147332 -2.770942 -6.893270 1.623162 -7.617024 -17.509462 -12.436162 -26.401593 86.939371 -0.926305 -4.115166 -0.671236 -0.351799 0.856065 -3.270265 0.048334 0.661042 -0.669867 -0.425283 0.177931 -8.538063 2.265286 1.077606 7.078516 2.068505 1.337835 -19.339209 -67.672384 -54.128018 23.730095 16.641837 -22.140367 -13.694054 4.635793 -5.223051 -0.157241 -7.347726 -0.315874 -0.229510 76.242917 54.916501 45.412784 -14.379439 19.694882 -20.359377 -1.992685 4.947167 -0.495540 6.744870 -0.302849 -0.276793 
-4.854264 13.730706 1.477207 -27.362179 84.278252 -13.071217 -5.451708 8.748668 -39.609040 2.345272 21.007923 57.930739 1.420432 0.097327 1.131479 -0.122439 -2.949562 -7.401155 2.103508 -7.079301 -18.123175 -12.887815 -26.112612 87.366176 -0.848201 -4.122841 -0.759709 -0.344657 0.714096 -2.865787 0.056399 0.545407 -0.694504 -0.101573 0.138338 -8.403518 2.032030 0.873622 7.037861 2.604010 1.362228 -18.874714 -66.863543 -54.367158 23.018006 16.361451 -21.687514 -13.637005 4.680846 -5.230741 -0.162076 -7.343296 -0.314539 -0.229536 77.144318 55.565947 46.159181 -14.015812 19.230844 -20.031040 -1.995393 5.081698 -0.454446 6.742221 -0.302320 -0.275330 
-4.434174 13.791907 1.522553 -32.812950 85.215744 -18.129774 -5.673049 8.389856 -39.258237 3.009219 21.083740 58.860436 1.716228 0.224306 0.932146 -0.121953 -3.002991 -7.538647 2.619253 -6.721486 -18.942017 -13.424641 -25.998066 87.519988 -0.509532 -4.117024 -0.660651 -0.357377 0.830338 -3.236670 -0.221875 0.591629 -0.740544 0.153347 0.242188 -8.271209 1.673396 0.846961 6.924898 3.176049 1.326347 -18.328837 -65.232136 -54.802598 21.711131 16.398780 -21.514126 -13.898275 4.638092 -5.247807 -0.387700 -7.343363 -0.320721 -0.237566 77.423348 57.055066 47.032515 -14.133884 19.040067 -19.950658 -1.799255 5.031402 -0.703771 6.728331 -0.308397 -0.282606 
